<svg xmlns="http://www.w3.org/2000/svg" width="20" height="20" viewBox="0 0 20 20">
  <path fill="#4285F4" d="M19.8 10.2c0-.7-.1-1.4-.2-2H10v3.8h5.5c-.2 1.2-.9 2.3-2 3v2.5h3.2c1.9-1.7 3-4.3 3-7.3z"/>
  <path fill="#34A853" d="M10 20c2.7 0 5-0.9 6.7-2.4l-3.2-2.5c-0.9 0.6-2 0.9-3.4 0.9-2.6 0-4.8-1.8-5.6-4.1H1.2v2.6C2.9 17.8 6.2 20 10 20z"/>
  <path fill="#FBBC05" d="M4.4 11.9c-0.2-0.6-0.3-1.3-0.3-2s0.1-1.3 0.3-2V5.3H1.2C0.4 6.7 0 8.3 0 10s0.4 3.3 1.2 4.7l3.2-2.8z"/>
  <path fill="#EA4335" d="M10 3.9c1.5 0 2.8 0.5 3.8 1.5l2.9-2.9C15.1 1 12.7 0 10 0 6.2 0 2.9 2.2 1.2 5.3l3.2 2.6c0.8-2.3 3-4 5.6-4z"/>
</svg> 